# xmcd
#
# Track frame offsets:
#	150
#	4330
#	8273
#	31289
#	37239
#	61607
#	72125
#	72503
#	101690
#
# Disc length: 1648 seconds
#
# Revision: 0
# Processed by: cddbd v1.5.2PL0 Copyright (c) Steve Scherf et al.
# Submitted via: EasyCDDAExtractor 11.9.9.666
#
DISCID=6d066e09
DTITLE=Bändi - Live Scenes from Kauhava
DYEAR=2004
DGENRE=Gospel
TTITLE0=Intro-selostus
TTITLE1=Final Countdown-saapuminen
TTITLE2=Infection
TTITLE3=Bändi esittely
TTITLE4=Vastavirtaan
TTITLE5=Pää, olkapää, peppu,polvet,varpaat
TTITLE6=Kiitos, Pelaamme myös sulkapalloa
TTITLE7=Kappale
TTITLE8=Haastattelu
EXTD=
EXTT0=
EXTT1=
EXTT2=
EXTT3=
EXTT4=
EXTT5=
EXTT6=
EXTT7=
EXTT8=
PLAYORDER=
